<?xml version="1.0" encoding="UTF-8"?>
<svg id="Layer_2" data-name="Layer 2" xmlns="http://www.w3.org/2000/svg" viewBox="0 0 30.27 28.52">
  <defs>
    <style>
      .cls-1, .cls-2 {
        fill: #087f73;
      }

      .cls-2, .cls-3 {
        fill-rule: evenodd;
      }

      .cls-3 {
        fill: none;
        stroke: #087f73;
        stroke-linecap: round;
        stroke-miterlimit: 10;
        stroke-width: 1.39px;
      }
    </style>
  </defs>
  <g id="Layer_1-2" data-name="Layer 1">
    <path class="cls-3" d="M.76,13.72C1.5,6.07,8.22,.17,16.19,.73c6.87,.49,12.56,5.95,13.3,12.79,.67,6.13-2.52,11.6-7.44,14.29-.06,.03-.14,0-.17-.06l-3.92-8.54c-.22-.47-.33-1-.33-1.53v-3.23c0-.3,.21-.54,.48-.54h.05c.5,0,.9-.45,.9-1.01v-.04c0-.56-.4-1.01-.9-1.01h-6.09c-.5,0-.9,.45-.9,1.01v.04c0,.56,.4,1.01,.9,1.01h.05c.26,0,.48,.24,.48,.54v3.23c0,.53-.11,1.05-.33,1.53l-3.9,8.54c-.03,.06-.11,.09-.17,.06C3.74,25.36,.69,20.6,.69,15.13c0-.48,.02-.95,.07-1.41Z"/>
    <g>
      <circle class="cls-1" cx="13.66" cy="5.45" r="1.09"/>
      <path class="cls-2" d="M16.39,7.4c-.72,0-1.31,.59-1.31,1.31s.59,1.31,1.31,1.31,1.31-.59,1.31-1.31-.59-1.31-1.31-1.31Z"/>
    </g>
  </g>
</svg>