<?xml version="1.0" encoding="UTF-8"?>
<svg id="Layer_2" data-name="Layer 2" xmlns="http://www.w3.org/2000/svg" viewBox="0 0 28.65 26.92">
  <defs>
    <style>
      .cls-1 {
        fill: #008272;
        fill-rule: evenodd;
      }
    </style>
  </defs>
  <g id="Layer_1-2" data-name="Layer 1">
    <path class="cls-1" d="M.07,12.93C.8,5.33,7.47-.52,15.37,.04c6.81,.48,12.46,5.9,13.19,12.69,.66,6.08-2.5,11.51-7.38,14.18-.06,.03-.14,0-.17-.06l-3.89-8.47c-.21-.47-.33-.99-.33-1.51v-3.21c0-.29,.21-.53,.48-.53h.05c.49,0,.9-.45,.9-1v-.04c0-.55-.4-1-.9-1h-6.04c-.49,0-.9,.45-.9,1v.04c0,.55,.4,1,.9,1h.05c.26,0,.48,.24,.48,.53v3.21c0,.53-.11,1.05-.33,1.51l-3.87,8.47c-.03,.06-.11,.09-.17,.06C3.02,24.47,0,19.75,0,14.33c0-.47,.02-.94,.07-1.4Z"/>
  </g>
</svg>