<?xml version="1.0" encoding="UTF-8"?>
<svg id="Layer_2" data-name="Layer 2" xmlns="http://www.w3.org/2000/svg" viewBox="0 0 30.27 28.57">
  <defs>
    <style>
      .cls-1, .cls-2 {
        fill: #b6dbd6;
      }

      .cls-2 {
        fill-rule: evenodd;
      }
    </style>
  </defs>
  <g id="Layer_1-2" data-name="Layer 1">
    <path class="cls-1" d="M22.12,28.57l-.38-.08c-.22-.07-.39-.23-.49-.43l-3.92-8.54c-.26-.56-.39-1.19-.39-1.82v-3.23c0-.68,.53-1.23,1.17-1.23,.15,0,.26-.14,.26-.32,0-.22-.11-.35-.21-.35h-6.08c-.1,0-.21,.14-.21,.32,0,.22,.11,.36,.21,.36,.7,0,1.23,.55,1.23,1.23v3.23c0,.63-.14,1.25-.39,1.82l-4.03,8.81-.36,.16c-.22,.07-.45,.05-.65-.06C3.02,25.77,0,20.67,0,15.14c0-.49,.02-.99,.07-1.48H.07C.87,5.43,7.97-.55,16.24,.04c7.17,.51,13.16,6.27,13.94,13.41,.67,6.14-2.39,12.02-7.79,14.97l-.26,.14Zm-.4-1.36h0s0,0,0,0ZM1.45,13.79h0c-.04,.45-.06,.9-.06,1.34,0,4.83,2.53,9.28,6.63,11.77l3.64-7.97c.17-.38,.27-.81,.27-1.24v-3.09c-.83-.11-1.44-.82-1.44-1.69,0-.98,.72-1.74,1.6-1.74h6.08c.88,0,1.6,.76,1.6,1.7s-.63,1.65-1.44,1.73v3.09c0,.43,.09,.86,.27,1.24l3.65,7.97c4.58-2.78,7.13-7.93,6.55-13.3-.7-6.48-6.15-11.71-12.66-12.17C8.64,.88,2.18,6.33,1.45,13.79Z"/>
    <g>
      <circle class="cls-1" cx="13.66" cy="5.45" r="1.09"/>
      <path class="cls-2" d="M16.39,7.4c-.72,0-1.31,.59-1.31,1.31s.59,1.31,1.31,1.31,1.31-.59,1.31-1.31-.59-1.31-1.31-1.31Z"/>
    </g>
  </g>
</svg>