<?xml version="1.0" encoding="UTF-8"?>
<svg id="Layer_2" data-name="Layer 2" xmlns="http://www.w3.org/2000/svg" viewBox="0 0 128.67 19.06">
  <defs>
    <style>
      .cls-1, .cls-2 {
        fill: #008272;
      }

      .cls-2 {
        fill-rule: evenodd;
      }
    </style>
  </defs>
  <g id="Layer_1-2" data-name="Layer 1">
    <path class="cls-1" d="M14.76,19.06l-.26-.06c-.14-.05-.26-.15-.32-.29l-2.61-5.7c-.17-.37-.26-.79-.26-1.21v-2.16c0-.45,.35-.82,.78-.82,.1,0,.18-.09,.18-.21,0-.15-.07-.24-.14-.24h-4.06c-.07,0-.14,.09-.14,.21,0,.15,.07,.24,.14,.24,.47,0,.82,.37,.82,.82v2.16c0,.42-.09,.84-.26,1.21l-2.69,5.88-.24,.11c-.14,.05-.3,.03-.43-.04C2.02,17.19,0,13.8,0,10.1c0-.33,.02-.66,.05-.99H.05C.58,3.63,5.31-.37,10.83,.03c4.79,.34,8.78,4.19,9.3,8.95,.45,4.1-1.6,8.02-5.2,9.99l-.18,.1Zm-9.58-.73s0,0,0,0h0ZM.97,9.2H.97c-.03,.29-.04,.6-.04,.9,0,3.22,1.69,6.19,4.43,7.85l2.43-5.32c.12-.25,.18-.54,.18-.83v-2.06c-.55-.07-.96-.55-.96-1.13,0-.65,.48-1.16,1.06-1.16h4.06c.59,0,1.07,.51,1.07,1.14s-.42,1.1-.96,1.16v2.06c0,.29,.06,.57,.18,.82l2.44,5.32c3.05-1.85,4.76-5.29,4.37-8.88-.47-4.32-4.1-7.82-8.45-8.12C5.75,.6,1.45,4.22,.97,9.2Z"/>
    <g>
      <circle class="cls-1" cx="9.11" cy="3.64" r=".73"/>
      <path class="cls-2" d="M10.94,4.94c-.48,0-.87,.39-.87,.87s.39,.87,.87,.87,.87-.39,.87-.87-.39-.87-.87-.87Z"/>
    </g>
    <g>
      <path class="cls-1" d="M37.47,1.75v2.5h-6.44v3.96h4.93v2.46h-4.93v6.53h-3.1V1.75h9.54Z"/>
      <path class="cls-1" d="M42.85,16.33c-1.21-.68-2.17-1.62-2.88-2.82-.71-1.2-1.06-2.56-1.06-4.08s.35-2.86,1.06-4.06c.71-1.2,1.67-2.14,2.88-2.82,1.21-.68,2.54-1.02,3.98-1.02s2.79,.34,3.99,1.02c1.2,.68,2.15,1.62,2.85,2.82,.7,1.2,1.05,2.56,1.05,4.06s-.35,2.88-1.05,4.08c-.7,1.2-1.66,2.14-2.86,2.82-1.21,.68-2.54,1.02-3.98,1.02s-2.77-.34-3.98-1.02Zm6.44-2.38c.71-.42,1.26-1.02,1.66-1.8,.4-.78,.6-1.69,.6-2.72s-.2-1.93-.6-2.71c-.4-.77-.95-1.37-1.66-1.78s-1.53-.62-2.46-.62-1.75,.21-2.47,.62-1.27,1.01-1.67,1.78c-.4,.77-.6,1.68-.6,2.71s.2,1.94,.6,2.72c.4,.78,.96,1.38,1.67,1.8s1.54,.63,2.47,.63,1.75-.21,2.46-.63Z"/>
      <path class="cls-1" d="M65,17.19l-3.41-6.02h-1.46v6.02h-3.1V1.75h5.8c1.19,0,2.21,.21,3.05,.63s1.47,.99,1.89,1.7c.42,.71,.63,1.52,.63,2.4,0,1.02-.3,1.94-.88,2.75-.59,.82-1.47,1.38-2.63,1.69l3.69,6.26h-3.58Zm-4.87-8.34h2.59c.84,0,1.47-.2,1.88-.61,.41-.41,.62-.97,.62-1.69s-.21-1.26-.62-1.65-1.04-.59-1.88-.59h-2.59v4.53Z"/>
      <path class="cls-1" d="M88.05,1.75v15.44h-3.1V7.15l-4.14,10.04h-2.35l-4.16-10.04v10.04h-3.1V1.75h3.52l4.91,11.48,4.91-11.48h3.49Z"/>
      <path class="cls-1" d="M100.57,14.25h-6.15l-1.02,2.94h-3.25l5.55-15.47h3.61l5.55,15.47h-3.27l-1.02-2.94Zm-.84-2.48l-2.23-6.46-2.23,6.46h4.47Z"/>
      <path class="cls-1" d="M117.45,1.75v2.5h-4.12v12.94h-3.1V4.25h-4.12V1.75h11.33Z"/>
      <path class="cls-1" d="M122.81,4.25v3.87h5.2v2.46h-5.2v4.09h5.86v2.52h-8.96V1.73h8.96v2.52h-5.86Z"/>
    </g>
  </g>
</svg>