<?xml version="1.0" encoding="UTF-8"?>
<svg id="Layer_2" data-name="Layer 2" xmlns="http://www.w3.org/2000/svg" viewBox="0 0 98.73 20">
  <defs>
    <style>
      .cls-1, .cls-2 {
        fill: #fff;
      }

      .cls-2 {
        fill-rule: evenodd;
      }
    </style>
  </defs>
  <g id="Layer_1-2" data-name="Layer 1">
    <path class="cls-1" d="M14.76,19.06l-.26-.06c-.14-.05-.26-.15-.32-.29l-2.61-5.7c-.17-.37-.26-.79-.26-1.21v-2.16c0-.45,.35-.82,.78-.82,.1,0,.18-.09,.18-.21,0-.15-.07-.24-.14-.24h-4.06c-.07,0-.14,.09-.14,.21,0,.15,.07,.24,.14,.24,.47,0,.82,.37,.82,.82v2.16c0,.42-.09,.84-.26,1.21l-2.69,5.88-.24,.11c-.14,.05-.3,.03-.43-.04C2.02,17.19,0,13.8,0,10.1c0-.33,.02-.66,.05-.99H.05C.58,3.63,5.31-.37,10.83,.03c4.79,.34,8.78,4.19,9.3,8.95,.45,4.1-1.6,8.02-5.2,9.99l-.18,.1Zm-9.58-.73s0,0,0,0h0ZM.97,9.2H.97c-.03,.29-.04,.6-.04,.9,0,3.22,1.69,6.19,4.43,7.85l2.43-5.32c.12-.25,.18-.54,.18-.83v-2.06c-.55-.07-.96-.55-.96-1.13,0-.65,.48-1.16,1.06-1.16h4.06c.59,0,1.07,.51,1.07,1.14s-.42,1.1-.96,1.16v2.06c0,.29,.06,.57,.18,.82l2.44,5.32c3.05-1.85,4.76-5.29,4.37-8.88-.47-4.32-4.1-7.82-8.45-8.12C5.75,.6,1.45,4.22,.97,9.2Z"/>
    <g>
      <circle class="cls-1" cx="9.11" cy="3.64" r=".73"/>
      <path class="cls-2" d="M10.94,4.94c-.48,0-.87,.39-.87,.87s.39,.87,.87,.87,.87-.39,.87-.87-.39-.87-.87-.87Z"/>
    </g>
    <g>
      <path class="cls-1" d="M35.7,.15V1.88h-4.45v2.74h3.41v1.7h-3.41v4.51h-2.14V.15h6.59Z"/>
      <path class="cls-1" d="M39.42,10.23c-.84-.47-1.5-1.12-1.99-1.95-.49-.83-.73-1.77-.73-2.82s.25-1.97,.73-2.81c.49-.83,1.15-1.48,1.99-1.95C40.25,.24,41.17,0,42.17,0s1.93,.23,2.76,.7c.83,.47,1.49,1.12,1.97,1.95,.48,.83,.73,1.77,.73,2.81s-.24,1.99-.73,2.82c-.48,.83-1.14,1.48-1.98,1.95-.84,.47-1.75,.7-2.75,.7s-1.92-.23-2.75-.7Zm4.45-1.64c.49-.29,.87-.71,1.15-1.25,.28-.54,.41-1.17,.41-1.88s-.14-1.34-.41-1.87c-.27-.54-.66-.95-1.15-1.23s-1.06-.43-1.7-.43-1.21,.14-1.7,.43-.88,.7-1.15,1.23c-.27,.54-.41,1.16-.41,1.87s.14,1.34,.41,1.88c.28,.54,.66,.96,1.15,1.25s1.06,.44,1.7,.44,1.21-.14,1.7-.44Z"/>
      <path class="cls-1" d="M54.72,10.83l-2.36-4.16h-1.01v4.16h-2.14V.15h4.01c.83,0,1.53,.14,2.11,.44s1.02,.68,1.31,1.18c.29,.49,.44,1.05,.44,1.66,0,.7-.2,1.34-.61,1.9-.41,.57-1.01,.96-1.82,1.17l2.55,4.33h-2.48Zm-3.36-5.77h1.79c.58,0,1.01-.14,1.3-.42,.29-.28,.43-.67,.43-1.17s-.14-.87-.43-1.14-.72-.41-1.3-.41h-1.79v3.13Z"/>
      <path class="cls-1" d="M70.66,.15V10.83h-2.14V3.89l-2.86,6.94h-1.62l-2.87-6.94v6.94h-2.14V.15h2.43l3.4,7.94L68.24,.15h2.42Z"/>
      <path class="cls-1" d="M79.31,8.79h-4.25l-.7,2.03h-2.25L75.95,.14h2.49l3.84,10.69h-2.26l-.7-2.03Zm-.58-1.71l-1.54-4.47-1.54,4.47h3.09Z"/>
      <path class="cls-1" d="M90.98,.15V1.88h-2.84V10.83h-2.14V1.88h-2.84V.15h7.83Z"/>
      <path class="cls-1" d="M94.68,1.88v2.68h3.59v1.7h-3.59v2.83h4.05v1.74h-6.19V.14h6.19V1.88h-4.05Z"/>
    </g>
    <g>
      <path class="cls-1" d="M33.53,15.67v4.28h-.56v-3.19l-1.42,3.19h-.4l-1.43-3.2v3.2h-.56v-4.28h.61l1.58,3.54,1.58-3.54h.6Z"/>
      <path class="cls-1" d="M37.5,15.64l-1.4,2.69v1.63h-.56v-1.63l-1.41-2.69h.62l1.06,2.18,1.06-2.18h.62Z"/>
      <path class="cls-1" d="M42.19,15.64v.46h-1.87v1.45h1.52v.46h-1.52v1.94h-.56v-4.31h2.44Z"/>
      <path class="cls-1" d="M43.73,19.72c-.33-.19-.59-.45-.78-.79-.19-.34-.29-.72-.29-1.14s.1-.8,.29-1.14c.19-.34,.45-.6,.78-.79s.7-.28,1.1-.28,.77,.09,1.1,.28,.59,.45,.78,.78c.19,.33,.28,.71,.28,1.14s-.09,.8-.28,1.14c-.19,.33-.45,.6-.78,.78s-.7,.28-1.1,.28-.77-.09-1.1-.28Zm1.91-.42c.24-.14,.43-.34,.57-.6,.14-.26,.21-.56,.21-.9s-.07-.65-.21-.91-.33-.46-.57-.6c-.24-.14-.51-.21-.82-.21s-.58,.07-.82,.21c-.24,.14-.43,.34-.57,.6-.14,.26-.21,.56-.21,.91s.07,.64,.21,.9c.14,.26,.33,.46,.57,.6,.24,.14,.51,.21,.81,.21s.57-.07,.81-.21Z"/>
      <path class="cls-1" d="M50,19.96l-1.03-1.76h-.68v1.76h-.56v-4.31h1.39c.33,0,.6,.06,.83,.17s.39,.26,.5,.45c.11,.19,.17,.41,.17,.65,0,.3-.09,.56-.26,.79-.17,.23-.43,.38-.77,.45l1.08,1.81h-.67Zm-1.71-2.21h.83c.3,0,.53-.08,.69-.23,.15-.15,.23-.35,.23-.6s-.08-.45-.23-.59c-.15-.14-.38-.21-.69-.21h-.83v1.63Z"/>
      <path class="cls-1" d="M55.87,15.67v4.28h-.56v-3.19l-1.42,3.19h-.4l-1.43-3.2v3.2h-.56v-4.28h.61l1.58,3.54,1.58-3.54h.6Z"/>
      <path class="cls-1" d="M57.37,15.64v2.73c0,.38,.09,.67,.28,.85,.19,.19,.45,.28,.78,.28s.59-.09,.78-.28c.19-.19,.28-.47,.28-.85v-2.73h.56v2.72c0,.36-.07,.66-.22,.91-.14,.25-.34,.43-.58,.55-.25,.12-.52,.18-.83,.18s-.58-.06-.83-.18c-.25-.12-.44-.3-.58-.55-.14-.25-.21-.55-.21-.91v-2.72h.56Z"/>
      <path class="cls-1" d="M61.56,19.5h1.51v.46h-2.07v-4.31h.56v3.86Z"/>
      <path class="cls-1" d="M66.22,19h-1.88l-.35,.96h-.59l1.56-4.29h.65l1.55,4.29h-.59l-.35-.96Zm-.16-.46l-.78-2.18-.78,2.18h1.56Z"/>
      <path class="cls-1" d="M70.5,15.64v.46h-1.18v3.86h-.56v-3.86h-1.18v-.46h2.92Z"/>
      <path class="cls-1" d="M71.75,15.64v4.31h-.56v-4.31h.56Z"/>
      <path class="cls-1" d="M76.1,19.96h-.56l-2.27-3.43v3.43h-.56v-4.32h.56l2.27,3.43v-3.43h.56v4.32Z"/>
      <path class="cls-1" d="M80.33,16.89c-.12-.25-.29-.45-.52-.58s-.49-.21-.79-.21-.57,.07-.81,.21-.43,.34-.57,.59c-.14,.26-.21,.56-.21,.89s.07,.64,.21,.89c.14,.26,.33,.45,.57,.59,.24,.14,.51,.21,.81,.21,.42,0,.77-.13,1.04-.38s.43-.59,.48-1.02h-1.72v-.46h2.32v.43c-.03,.35-.14,.68-.33,.97-.19,.3-.44,.53-.75,.7-.31,.17-.65,.26-1.03,.26-.4,0-.77-.09-1.1-.28s-.59-.45-.78-.78c-.19-.33-.29-.71-.29-1.13s.1-.8,.29-1.14c.19-.34,.45-.6,.78-.79s.7-.28,1.1-.28c.46,0,.86,.11,1.22,.34,.35,.23,.61,.55,.77,.96h-.67Z"/>
      <path class="cls-1" d="M87.9,15.67v4.28h-.56v-3.19l-1.42,3.19h-.4l-1.43-3.2v3.2h-.56v-4.28h.61l1.58,3.54,1.58-3.54h.6Z"/>
      <path class="cls-1" d="M91.4,19h-1.88l-.35,.96h-.59l1.56-4.29h.65l1.55,4.29h-.59l-.35-.96Zm-.16-.46l-.78-2.18-.78,2.18h1.56Z"/>
      <path class="cls-1" d="M95.68,15.64v.46h-1.18v3.86h-.56v-3.86h-1.18v-.46h2.92Z"/>
      <path class="cls-1" d="M96.94,16.1v1.44h1.57v.46h-1.57v1.49h1.76v.46h-2.32v-4.32h2.32v.46h-1.76Z"/>
    </g>
  </g>
</svg>